{
    "asset" : {
        "generator" : "Khronos glTF Blender I/O v1.4.40",
        "version" : "2.0"
    },
    "scene" : 0,
    "scenes" : [
        {
            "name" : "Scene",
            "nodes" : [
                0
            ]
        }
    ],
    "nodes" : [
        {
            "mesh" : 0,
            "name" : "Cleanup",
            "scale" : [
                0.009175211191177368,
                0.009175211191177368,
                0.009175211191177368
            ],
            "translation" : [
                0.08246752619743347,
                0.04503781348466873,
                -0.1176644116640091
            ]
        }
    ],
    "materials" : [
        {
            "doubleSided" : true,
            "name" : "Material.001",
            "pbrMetallicRoughness" : {
                "baseColorFactor" : [
                    0.8000000715255737,
                    0.17439843714237213,
                    0.009366022422909737,
                    1
                ],
                "metallicFactor" : 0,
                "roughnessFactor" : 0.5
            }
        }
    ],
    "meshes" : [
        {
            "name" : "Cleanup",
            "primitives" : [
                {
                    "attributes" : {
                        "POSITION" : 0,
                        "NORMAL" : 1
                    },
                    "indices" : 2,
                    "material" : 0
                }
            ]
        }
    ],
    "accessors" : [
        {
            "bufferView" : 0,
            "componentType" : 5126,
            "count" : 68781,
            "max" : [
                53.35369873046875,
                320.5650329589844,
                57.74468994140625
            ],
            "min" : [
                -170.65171813964844,
                -110.28580474853516,
                -61.51216125488281
            ],
            "type" : "VEC3"
        },
        {
            "bufferView" : 1,
            "componentType" : 5126,
            "count" : 68781,
            "type" : "VEC3"
        },
        {
            "bufferView" : 2,
            "componentType" : 5125,
            "count" : 68781,
            "type" : "SCALAR"
        }
    ],
    "bufferViews" : [
        {
            "buffer" : 0,
            "byteLength" : 825372,
            "byteOffset" : 0
        },
        {
            "buffer" : 0,
            "byteLength" : 825372,
            "byteOffset" : 825372
        },
        {
            "buffer" : 0,
            "byteLength" : 275124,
            "byteOffset" : 1650744
        }
    ],
    "buffers" : [
        {
            "byteLength" : 1925868,
            "uri" : "data:application/octet-stream;base64,"
        }
    ]
}
